<svg width="32" height="32" viewBox="0 0 32 32" fill="none" xmlns="http://www.w3.org/2000/svg">
  <!-- Fondo Azul Primario (rounded-xl aproximado) -->
  <rect width="32" height="32" rx="8" fill="#3b82f6"/>
  
  <!-- Icono de Camisita (Shirt) en Blanco -->
  <g transform="translate(6, 6) scale(0.83)">
    <path 
      d="M20.38 3.46 16 2a4 4 0 0 0-8 0L3.62 3.46a2 2 0 0 0-1.62 1.96v4.42a2 2 0 0 0 .39 1.16l2.23 3.1a2 2 0 0 1 .38 1.16V20a2 2 0 0 0 2 2h10a2 2 0 0 0 2-2v-4.74a2 2 0 0 1 .38-1.16l2.23-3.1a2 2 0 0 0 .39-1.16V5.42a2 2 0 0 0-1.62-1.96z" 
      stroke="white" 
      stroke-width="2.5" 
      stroke-linecap="round" 
      stroke-linejoin="round"
      fill="none"
    />
    <path 
      d="M10 22v-6.42a2 2 0 0 1 .39-1.16l1.22-1.7a2 2 0 0 0 .39-1.16V2" 
      stroke="white" 
      stroke-width="2.5" 
      stroke-linecap="round" 
      stroke-linejoin="round"
      fill="none"
    />
  </g>
</svg>
